# xmcd
#
# Track frame offsets:
#	150
#	17305
#	31600
#	47980
#	64057
#	84279
#	101795
#	115240
#	129017
#	145117
#	166145
#
# Disc length: 2459 seconds
#
# Revision: 3
# Processed by: cddbd v1.4PL0 Copyright (c) Steve Scherf et al.
# Submitted via: audiograbber 1.81.03
#
DISCID=7c09990b
DTITLE=Fagner - Terral
DYEAR=1900
DGENRE=Samba
TTITLE0=Terral
TTITLE1=Volta, Morena
TTITLE2=O Vendedor de Biscoito
TTITLE3=Forró do Chiq-Tak
TTITLE4=Os Sertões
TTITLE5=Quero Voltar Pra Bahia
TTITLE6=Rela Bucho
TTITLE7=Forró Do Tio Augusto
TTITLE8=Mambo Da Cantareira
TTITLE9=Amor Pra Dar
TTITLE10=Espumas Ao Vento
EXTD=
EXTT0=
EXTT1=
EXTT2=
EXTT3=
EXTT4=
EXTT5=
EXTT6=
EXTT7=
EXTT8=
EXTT9=
EXTT10=
PLAYORDER=
